<?xml version="1.0" encoding="UTF-8"?>
<svg id="Layer_2" data-name="Layer 2" xmlns="http://www.w3.org/2000/svg" viewBox="0 0 1119.54 696.31">
  <defs>
    <style>
      .cls-1 {
        fill: #da4437;
      }

      .cls-2 {
        fill: #f3b300;
      }

      .cls-3 {
        fill: #3e4c60;
      }

      .cls-4 {
        fill: #2783c8;
      }
    </style>
  </defs>
  <g id="Layer_1-2" data-name="Layer 1">
    <g>
      <g>
        <path class="cls-3" d="M5.24,575.17c-1.43,0-2.65-.52-3.69-1.55-1.04-1.04-1.55-2.26-1.55-3.69v-125.43c0-1.42.51-2.65,1.55-3.69,1.04-1.04,2.26-1.55,3.69-1.55h30.68c2.59,0,4.47.58,5.63,1.75,1.17,1.16,1.94,2.07,2.33,2.72l32.82,53.78v-53.01c0-1.42.52-2.65,1.55-3.69,1.04-1.04,2.27-1.55,3.69-1.55h35.14c1.43,0,2.65.52,3.69,1.55,1.03,1.04,1.55,2.27,1.55,3.69v125.43c0,1.43-.52,2.65-1.55,3.69-1.04,1.04-2.27,1.55-3.69,1.55h-30.68c-2.59,0-4.46-.61-5.63-1.84-1.17-1.23-1.94-2.1-2.33-2.62l-32.82-49.51v48.74c0,1.43-.52,2.65-1.55,3.69-1.04,1.04-2.27,1.55-3.69,1.55H5.24Z"/>
        <path class="cls-3" d="M148.92,575.17c-1.43,0-2.65-.52-3.69-1.55-1.04-1.04-1.55-2.26-1.55-3.69v-125.43c0-1.42.51-2.65,1.55-3.69,1.04-1.04,2.26-1.55,3.69-1.55h99.6c1.43,0,2.65.52,3.69,1.55,1.04,1.04,1.55,2.27,1.55,3.69v27.38c0,1.42-.52,2.65-1.55,3.69-1.04,1.04-2.27,1.55-3.69,1.55h-58.25v12.23h53.98c1.42,0,2.65.52,3.69,1.55,1.04,1.04,1.55,2.27,1.55,3.69v25.24c0,1.43-.52,2.65-1.55,3.69-1.04,1.04-2.27,1.55-3.69,1.55h-53.98v12.23h59.8c1.43,0,2.65.52,3.69,1.55,1.04,1.04,1.55,2.27,1.55,3.69v27.38c0,1.43-.52,2.65-1.55,3.69-1.04,1.04-2.27,1.55-3.69,1.55h-101.16Z"/>
        <path class="cls-3" d="M266.77,575.17c-1.16,0-2.17-.42-3.01-1.26-.85-.84-1.26-1.84-1.26-3.01,0-.26.03-.55.1-.87.06-.32.23-.74.49-1.26l40.78-63.1-36.7-60c-.39-.78-.58-1.49-.58-2.14,0-1.16.42-2.17,1.26-3.01.84-.84,1.84-1.26,3.01-1.26h42.13c2.59,0,4.5.65,5.73,1.94,1.23,1.3,2.04,2.27,2.42,2.91l13.6,23.69,14.75-23.69c.39-.65,1.23-1.62,2.52-2.91,1.29-1.29,3.17-1.94,5.63-1.94h40.19c1.16,0,2.17.42,3.01,1.26.84.84,1.26,1.84,1.26,3.01,0,.78-.2,1.49-.59,2.14l-37.47,59.41,41.35,63.69c.26.52.42.94.49,1.26.06.32.1.62.1.87,0,1.16-.42,2.17-1.26,3.01-.85.84-1.84,1.26-3.01,1.26h-43.69c-2.46,0-4.34-.61-5.63-1.84-1.29-1.23-2.07-2.1-2.33-2.62l-16.89-26.02-16.12,26.02c-.26.52-1,1.39-2.23,2.62-1.23,1.23-3.14,1.84-5.73,1.84h-42.33Z"/>
        <path class="cls-3" d="M452.01,575.17c-1.43,0-2.66-.52-3.69-1.55-1.04-1.04-1.56-2.26-1.56-3.69v-88.93h-32.23c-1.43,0-2.65-.52-3.69-1.55-1.04-1.03-1.55-2.26-1.55-3.69v-31.26c0-1.42.51-2.65,1.55-3.69,1.04-1.04,2.26-1.55,3.69-1.55h113.78c1.42,0,2.65.52,3.69,1.55,1.04,1.04,1.55,2.27,1.55,3.69v31.26c0,1.43-.52,2.66-1.55,3.69-1.04,1.04-2.27,1.55-3.69,1.55h-32.23v88.93c0,1.43-.52,2.65-1.55,3.69-1.04,1.04-2.27,1.55-3.69,1.55h-38.83Z"/>
        <path class="cls-3" d="M610.83,575.17c-1.43,0-2.66-.52-3.69-1.55-1.04-1.04-1.56-2.26-1.56-3.69v-88.93h-32.23c-1.43,0-2.65-.52-3.69-1.55-1.04-1.03-1.55-2.26-1.55-3.69v-31.26c0-1.42.51-2.65,1.55-3.69,1.04-1.04,2.26-1.55,3.69-1.55h113.78c1.42,0,2.65.52,3.69,1.55,1.04,1.04,1.55,2.27,1.55,3.69v31.26c0,1.43-.52,2.66-1.55,3.69-1.04,1.04-2.27,1.55-3.69,1.55h-32.23v88.93c0,1.43-.52,2.65-1.55,3.69-1.04,1.04-2.27,1.55-3.69,1.55h-38.83Z"/>
        <path class="cls-3" d="M766.36,577.11c-12.69,0-23.78-1.94-33.3-5.82-9.51-3.88-17.02-9.74-22.52-17.57-5.5-7.83-8.51-17.51-9.03-29.03-.13-5.31-.19-10.94-.19-16.89s.06-11.71.19-17.28c.52-11.39,3.5-21.03,8.93-28.93,5.44-7.89,12.95-13.91,22.53-18.06,9.58-4.14,20.7-6.21,33.39-6.21s23.82,2.07,33.4,6.21c9.58,4.14,17.12,10.16,22.62,18.06,5.5,7.9,8.45,17.54,8.83,28.93.26,5.57.39,11.33.39,17.28s-.13,11.59-.39,16.89c-.52,11.52-3.53,21.2-9.03,29.03-5.5,7.83-13.01,13.69-22.52,17.57s-20.61,5.82-33.3,5.82ZM766.36,539.25c4.27,0,7.7-1.26,10.29-3.79,2.59-2.52,3.95-6.5,4.08-11.94.26-5.56.39-11.07.39-16.5s-.13-10.81-.39-16.11c-.13-3.62-.81-6.6-2.04-8.93-1.24-2.33-2.88-4.04-4.95-5.15-2.07-1.1-4.53-1.65-7.38-1.65s-5.14.55-7.28,1.65c-2.13,1.1-3.82,2.82-5.05,5.15-1.23,2.33-1.91,5.31-2.04,8.93-.13,5.31-.2,10.68-.2,16.11s.06,10.94.2,16.5c.26,5.44,1.65,9.42,4.17,11.94,2.52,2.52,5.93,3.79,10.19,3.79Z"/>
        <path class="cls-3" d="M911.01,577.11c-12.43,0-23.4-1.88-32.91-5.63-9.51-3.75-16.93-9.58-22.23-17.47-5.31-7.89-7.96-17.93-7.96-30.09v-79.41c0-1.42.51-2.65,1.55-3.69,1.03-1.04,2.26-1.55,3.69-1.55h38.06c1.42,0,2.65.52,3.69,1.55,1.03,1.04,1.55,2.27,1.55,3.69v78.64c0,4.79,1.19,8.48,3.59,11.07,2.39,2.59,5.98,3.88,10.77,3.88s8.38-1.29,10.77-3.88c2.39-2.59,3.59-6.28,3.59-11.07v-78.64c0-1.42.52-2.65,1.55-3.69,1.04-1.04,2.27-1.55,3.69-1.55h38.06c1.42,0,2.65.52,3.69,1.55,1.04,1.04,1.55,2.27,1.55,3.69v79.41c0,12.17-2.65,22.2-7.96,30.09-5.31,7.9-12.69,13.72-22.14,17.47-9.45,3.75-20.32,5.63-32.62,5.63Z"/>
        <path class="cls-3" d="M999.16,575.17c-1.43,0-2.65-.52-3.69-1.55-1.04-1.04-1.55-2.26-1.55-3.69v-125.43c0-1.42.51-2.65,1.55-3.69,1.04-1.04,2.26-1.55,3.69-1.55h57.47c18.64,0,33.2,4.21,43.69,12.62,10.48,8.42,15.73,19.93,15.73,34.56,0,8.67-1.98,16.21-5.92,22.62-3.95,6.41-8.97,11.55-15.05,15.44l23.88,44.27c.39.78.59,1.49.59,2.14,0,1.16-.42,2.17-1.26,3.01-.85.84-1.85,1.26-3.01,1.26h-39.8c-2.59,0-4.53-.65-5.83-1.94-1.29-1.29-2.13-2.39-2.52-3.3l-16.7-37.09h-7.96v37.09c0,1.43-.52,2.65-1.55,3.69-1.04,1.04-2.27,1.55-3.69,1.55h-38.06ZM1042.46,495.95h14.17c2.98,0,5.21-1,6.7-3.01,1.49-2.01,2.23-4.3,2.23-6.89s-.68-5.02-2.04-7.28c-1.36-2.26-3.66-3.4-6.89-3.4h-14.17v20.58Z"/>
      </g>
      <g>
        <path class="cls-3" d="M2.21,695.31c-.67,0-1.21-.2-1.61-.6-.4-.4-.6-.94-.6-1.61v-65.91c0-.74.2-1.31.6-1.71s.94-.6,1.61-.6h2.11c.67,0,1.17.17,1.51.5.33.34.54.57.6.7l37.13,56.76v-55.65c0-.74.2-1.31.61-1.71.4-.4.94-.6,1.61-.6h1.81c.74,0,1.31.2,1.71.6s.6.97.6,1.71v65.81c0,.67-.2,1.22-.6,1.66-.4.44-.94.65-1.61.65h-2.21c-.67,0-1.16-.17-1.46-.5-.3-.33-.52-.57-.65-.7l-37.03-56.56v55.55c0,.67-.2,1.21-.61,1.61-.4.4-.97.6-1.71.6h-1.81Z"/>
        <path class="cls-3" d="M86.95,696.31c-6.51,0-11.67-2.13-15.5-6.39-3.82-4.26-6.01-9.84-6.54-16.76-.07-1.01-.1-2.35-.1-4.03s.03-3.02.1-4.03c.34-4.56,1.41-8.59,3.22-12.08,1.81-3.49,4.31-6.2,7.5-8.15,3.18-1.94,6.96-2.92,11.32-2.92,4.69,0,8.69,1.04,11.98,3.12,3.29,2.08,5.82,5.07,7.6,8.96,1.78,3.89,2.67,8.52,2.67,13.89v1.51c0,.67-.22,1.21-.66,1.61-.44.4-.99.6-1.66.6h-35.82v1.01c.14,3.02.84,5.89,2.11,8.6,1.27,2.72,3.08,4.93,5.44,6.64,2.35,1.71,5.13,2.57,8.35,2.57,2.88,0,5.28-.44,7.2-1.31,1.91-.87,3.44-1.83,4.58-2.87,1.14-1.04,1.88-1.83,2.22-2.36.6-.87,1.07-1.39,1.41-1.56.34-.17.87-.25,1.61-.25h1.61c.61,0,1.12.19,1.56.55.44.37.62.86.55,1.46-.07.94-.59,2.1-1.56,3.47-.98,1.38-2.35,2.73-4.13,4.08-1.78,1.34-3.94,2.45-6.49,3.32-2.55.87-5.4,1.31-8.55,1.31ZM71.05,666.02h32v-.4c0-3.35-.64-6.37-1.91-9.06-1.28-2.68-3.12-4.81-5.54-6.39-2.41-1.58-5.3-2.36-8.65-2.36s-6.22.79-8.6,2.36c-2.38,1.58-4.19,3.71-5.44,6.39-1.24,2.68-1.86,5.7-1.86,9.06v.4Z"/>
        <path class="cls-3" d="M119.05,695.31c-.54,0-1.01-.2-1.41-.6-.4-.4-.61-.87-.61-1.41,0-.27.05-.55.15-.86.1-.3.32-.69.65-1.16l17.71-22.74-16.81-21.54c-.34-.47-.55-.86-.65-1.16-.1-.3-.15-.59-.15-.86,0-.54.2-1.01.61-1.41.4-.4.87-.6,1.41-.6h2.11c.67,0,1.19.17,1.56.5.37.34.69.67.96,1.01l15.09,19.42,15.09-19.32c.34-.34.67-.69,1.01-1.06.34-.37.84-.55,1.51-.55h2.01c.54,0,1.01.2,1.41.6.4.4.6.87.6,1.41,0,.27-.05.55-.15.86-.1.3-.32.69-.66,1.16l-17.01,21.84,17.71,22.44c.34.47.55.86.65,1.16.1.3.15.59.15.86,0,.54-.2,1.01-.61,1.41-.4.4-.87.6-1.41.6h-2.11c-.67,0-1.19-.17-1.56-.5-.37-.33-.69-.67-.96-1.01l-15.9-20.33-15.9,20.33c-.27.34-.59.67-.96,1.01-.37.34-.89.5-1.56.5h-2.01Z"/>
        <path class="cls-3" d="M191.4,695.31c-3.49,0-6.24-.74-8.25-2.21-2.01-1.47-3.42-3.49-4.23-6.04-.81-2.55-1.21-5.4-1.21-8.55v-29.69h-7.85c-.67,0-1.21-.2-1.61-.6s-.6-.94-.6-1.61v-1.41c0-.67.2-1.21.6-1.61.4-.4.94-.6,1.61-.6h7.85v-16.91c0-.67.2-1.21.6-1.61.4-.4.94-.6,1.61-.6h1.71c.67,0,1.21.2,1.61.6.4.4.6.94.6,1.61v16.91h12.48c.67,0,1.21.2,1.61.6.4.4.6.94.6,1.61v1.41c0,.67-.2,1.21-.6,1.61s-.94.6-1.61.6h-12.48v29.28c0,3.56.59,6.34,1.76,8.35,1.17,2.01,3.27,3.02,6.29,3.02h5.44c.67,0,1.21.2,1.61.6.4.4.61.94.61,1.61v1.41c0,.67-.2,1.21-.61,1.61-.4.4-.94.6-1.61.6h-5.94Z"/>
        <path class="cls-3" d="M239.4,695.31c-.67,0-1.21-.2-1.61-.6-.4-.4-.6-.94-.6-1.61v-66.01c0-.67.2-1.21.6-1.61.4-.4.94-.6,1.61-.6h1.91c.67,0,1.21.2,1.61.6.4.4.61.94.61,1.61v62.19h34.72c.74,0,1.31.2,1.71.6.4.4.61.97.61,1.71v1.51c0,.67-.2,1.21-.61,1.61-.4.4-.97.6-1.71.6h-38.84Z"/>
        <path class="cls-3" d="M309.14,696.31c-6.51,0-11.67-2.13-15.5-6.39-3.82-4.26-6.01-9.84-6.54-16.76-.07-1.01-.1-2.35-.1-4.03s.03-3.02.1-4.03c.34-4.56,1.41-8.59,3.22-12.08,1.81-3.49,4.31-6.2,7.5-8.15,3.18-1.94,6.96-2.92,11.32-2.92,4.69,0,8.69,1.04,11.98,3.12,3.29,2.08,5.82,5.07,7.6,8.96,1.78,3.89,2.67,8.52,2.67,13.89v1.51c0,.67-.22,1.21-.66,1.61-.44.4-.99.6-1.66.6h-35.82v1.01c.14,3.02.84,5.89,2.11,8.6,1.27,2.72,3.08,4.93,5.44,6.64,2.35,1.71,5.13,2.57,8.35,2.57,2.88,0,5.28-.44,7.2-1.31,1.91-.87,3.44-1.83,4.58-2.87,1.14-1.04,1.88-1.83,2.22-2.36.6-.87,1.07-1.39,1.41-1.56.34-.17.87-.25,1.61-.25h1.61c.61,0,1.12.19,1.56.55.44.37.62.86.55,1.46-.07.94-.59,2.1-1.56,3.47-.98,1.38-2.35,2.73-4.13,4.08-1.78,1.34-3.94,2.45-6.49,3.32-2.55.87-5.4,1.31-8.55,1.31ZM293.24,666.02h32v-.4c0-3.35-.64-6.37-1.91-9.06-1.28-2.68-3.12-4.81-5.54-6.39-2.41-1.58-5.3-2.36-8.65-2.36s-6.22.79-8.6,2.36c-2.38,1.58-4.19,3.71-5.44,6.39-1.24,2.68-1.86,5.7-1.86,9.06v.4Z"/>
        <path class="cls-3" d="M360.97,695.31c-1.08,0-1.9-.23-2.47-.7-.57-.47-1.02-1.07-1.36-1.81l-18.52-46.69c-.14-.4-.2-.77-.2-1.11,0-.54.2-1.01.61-1.41s.87-.6,1.41-.6h2.11c.67,0,1.19.19,1.56.55.37.37.59.69.65.96l17.01,43.47,17.01-43.47c.14-.27.37-.59.71-.96.34-.37.84-.55,1.51-.55h2.11c.54,0,1.01.2,1.41.6.4.4.6.87.6,1.41,0,.34-.07.7-.2,1.11l-18.52,46.69c-.27.74-.7,1.34-1.31,1.81-.6.47-1.44.7-2.51.7h-1.61Z"/>
        <path class="cls-3" d="M414.51,696.31c-6.51,0-11.67-2.13-15.5-6.39-3.82-4.26-6.01-9.84-6.54-16.76-.07-1.01-.1-2.35-.1-4.03s.03-3.02.1-4.03c.34-4.56,1.41-8.59,3.22-12.08,1.81-3.49,4.31-6.2,7.5-8.15,3.18-1.94,6.96-2.92,11.32-2.92,4.69,0,8.69,1.04,11.98,3.12,3.29,2.08,5.82,5.07,7.6,8.96,1.78,3.89,2.67,8.52,2.67,13.89v1.51c0,.67-.22,1.21-.66,1.61-.44.4-.99.6-1.66.6h-35.82v1.01c.14,3.02.84,5.89,2.11,8.6,1.27,2.72,3.08,4.93,5.44,6.64,2.35,1.71,5.13,2.57,8.35,2.57,2.88,0,5.28-.44,7.2-1.31,1.91-.87,3.44-1.83,4.58-2.87,1.14-1.04,1.88-1.83,2.22-2.36.6-.87,1.07-1.39,1.41-1.56.34-.17.87-.25,1.61-.25h1.61c.61,0,1.12.19,1.56.55.44.37.62.86.55,1.46-.07.94-.59,2.1-1.56,3.47-.98,1.38-2.35,2.73-4.13,4.08-1.78,1.34-3.94,2.45-6.49,3.32-2.55.87-5.4,1.31-8.55,1.31ZM398.61,666.02h32v-.4c0-3.35-.64-6.37-1.91-9.06-1.28-2.68-3.12-4.81-5.54-6.39-2.41-1.58-5.3-2.36-8.65-2.36s-6.22.79-8.6,2.36c-2.38,1.58-4.19,3.71-5.44,6.39-1.24,2.68-1.86,5.7-1.86,9.06v.4Z"/>
        <path class="cls-3" d="M452.34,695.31c-.67,0-1.21-.2-1.61-.6-.4-.4-.61-.94-.61-1.61v-67.02c0-.67.2-1.21.61-1.61.4-.4.94-.6,1.61-.6h1.71c.67,0,1.21.2,1.61.6.4.4.6.94.6,1.61v67.02c0,.67-.2,1.21-.6,1.61-.4.4-.94.6-1.61.6h-1.71Z"/>
        <path class="cls-3" d="M518.56,696.31c-4.83,0-8.87-1.01-12.13-3.02-3.25-2.01-5.74-4.76-7.45-8.25-1.71-3.49-2.63-7.38-2.77-11.67-.07-1.01-.1-2.41-.1-4.23s.03-3.22.1-4.23c.14-4.36,1.06-8.27,2.77-11.72,1.71-3.45,4.19-6.19,7.45-8.2,3.25-2.01,7.3-3.02,12.13-3.02s8.87,1.01,12.13,3.02c3.25,2.01,5.74,4.75,7.45,8.2,1.71,3.46,2.63,7.36,2.77,11.72.07,1.01.1,2.41.1,4.23s-.03,3.22-.1,4.23c-.14,4.29-1.06,8.19-2.77,11.67-1.71,3.49-4.19,6.24-7.45,8.25-3.25,2.01-7.3,3.02-12.13,3.02ZM518.56,690.48c4.69,0,8.52-1.51,11.47-4.53,2.95-3.02,4.53-7.38,4.73-13.08.07-1.01.1-2.25.1-3.72s-.04-2.72-.1-3.72c-.2-5.77-1.78-10.15-4.73-13.13-2.95-2.98-6.78-4.48-11.47-4.48s-8.52,1.49-11.47,4.48c-2.95,2.99-4.53,7.36-4.73,13.13-.07,1.01-.1,2.25-.1,3.72s.04,2.72.1,3.72c.2,5.7,1.78,10.06,4.73,13.08,2.95,3.02,6.77,4.53,11.47,4.53Z"/>
        <path class="cls-3" d="M561.23,695.31c-.67,0-1.21-.2-1.61-.6-.4-.4-.61-.94-.61-1.61v-44.28h-8.95c-.67,0-1.21-.2-1.61-.6s-.61-.94-.61-1.61v-1.41c0-.67.2-1.21.61-1.61s.94-.6,1.61-.6h8.95v-5.74c0-3.02.42-5.77,1.26-8.25.84-2.48,2.35-4.46,4.53-5.94,2.18-1.47,5.32-2.21,9.41-2.21h5.23c.67,0,1.21.2,1.61.6.4.4.6.94.6,1.61v1.41c0,.67-.2,1.21-.6,1.61-.4.4-.94.6-1.61.6h-5.23c-3.56,0-5.96.96-7.2,2.87-1.24,1.91-1.86,4.65-1.86,8.2v5.23h13.28c.67,0,1.21.2,1.61.6.4.4.61.94.61,1.61v1.41c0,.67-.2,1.21-.61,1.61s-.94.6-1.61.6h-13.28v44.28c0,.67-.2,1.21-.61,1.61-.4.4-.94.6-1.61.6h-1.71Z"/>
        <path class="cls-3" d="M617.48,695.31c-.67,0-1.21-.2-1.61-.6-.4-.4-.6-.94-.6-1.61v-65.91c0-.74.2-1.31.6-1.71.4-.4.94-.6,1.61-.6h39.25c.74,0,1.31.2,1.71.6.4.4.61.97.61,1.71v1.51c0,.67-.2,1.21-.61,1.61-.4.4-.97.6-1.71.6h-35.12v25.66h32.91c.74,0,1.31.2,1.71.6.4.4.61.97.61,1.71v1.51c0,.67-.2,1.21-.61,1.61-.4.4-.97.6-1.71.6h-32.91v26.67h35.92c.74,0,1.31.2,1.71.6.4.4.61.97.61,1.71v1.51c0,.67-.2,1.21-.61,1.61-.4.4-.97.6-1.71.6h-40.05Z"/>
        <path class="cls-3" d="M670.92,695.31c-.54,0-1.01-.2-1.41-.6-.4-.4-.61-.87-.61-1.41,0-.27.05-.55.15-.86.1-.3.32-.69.65-1.16l17.71-22.74-16.81-21.54c-.34-.47-.55-.86-.65-1.16-.1-.3-.15-.59-.15-.86,0-.54.2-1.01.61-1.41s.87-.6,1.41-.6h2.11c.67,0,1.19.17,1.56.5.37.34.69.67.96,1.01l15.09,19.42,15.09-19.32c.34-.34.67-.69,1.01-1.06.34-.37.84-.55,1.51-.55h2.01c.54,0,1.01.2,1.41.6.4.4.6.87.6,1.41,0,.27-.05.55-.15.86-.1.3-.32.69-.66,1.16l-17.01,21.84,17.71,22.44c.34.47.55.86.65,1.16.1.3.15.59.15.86,0,.54-.2,1.01-.61,1.41-.4.4-.87.6-1.41.6h-2.11c-.67,0-1.19-.17-1.56-.5-.37-.33-.69-.67-.96-1.01l-15.9-20.33-15.9,20.33c-.27.34-.59.67-.96,1.01-.37.34-.89.5-1.56.5h-2.01Z"/>
        <path class="cls-3" d="M744.28,696.31c-4.7,0-8.69-.92-11.98-2.77-3.29-1.84-5.79-4.51-7.5-8-1.71-3.49-2.63-7.61-2.77-12.38-.07-1.01-.1-2.35-.1-4.03s.03-3.02.1-4.03c.14-4.83,1.06-8.97,2.77-12.43,1.71-3.45,4.21-6.1,7.5-7.95,3.29-1.84,7.28-2.77,11.98-2.77,3.55,0,6.63.49,9.21,1.46,2.58.97,4.71,2.25,6.39,3.82,1.68,1.58,2.95,3.31,3.82,5.18.87,1.88,1.34,3.72,1.41,5.53.07.67-.14,1.21-.6,1.61-.47.4-1.01.6-1.61.6h-1.41c-.67,0-1.16-.15-1.46-.45-.3-.3-.62-.86-.96-1.66-1.41-3.82-3.34-6.49-5.79-8-2.45-1.51-5.45-2.26-9.01-2.26-4.56,0-8.34,1.39-11.32,4.18-2.99,2.79-4.58,7.33-4.78,13.64-.14,2.35-.14,4.7,0,7.04.2,6.31,1.79,10.85,4.78,13.64,2.98,2.79,6.76,4.18,11.32,4.18,3.55,0,6.56-.75,9.01-2.26,2.45-1.51,4.38-4.18,5.79-8,.34-.81.66-1.36.96-1.66.3-.3.79-.45,1.46-.45h1.41c.61,0,1.14.2,1.61.6.47.4.67.94.6,1.61-.07,1.48-.37,2.95-.91,4.43-.54,1.48-1.36,2.92-2.46,4.33-1.11,1.41-2.47,2.65-4.08,3.72-1.61,1.07-3.54,1.93-5.79,2.57-2.25.64-4.78.96-7.6.96Z"/>
        <path class="cls-3" d="M779.5,632.21c-.67,0-1.21-.2-1.61-.6-.4-.4-.61-.94-.61-1.61v-3.82c0-.67.2-1.22.61-1.66.4-.44.94-.65,1.61-.65h3.82c.67,0,1.22.22,1.66.65.44.44.66.99.66,1.66v3.82c0,.67-.22,1.21-.66,1.61-.44.4-.99.6-1.66.6h-3.82ZM780.61,695.31c-.67,0-1.21-.2-1.61-.6-.4-.4-.6-.94-.6-1.61v-47.9c0-.67.2-1.21.6-1.61s.94-.6,1.61-.6h1.71c.67,0,1.21.2,1.61.6.4.4.6.94.6,1.61v47.9c0,.67-.2,1.21-.6,1.61-.4.4-.94.6-1.61.6h-1.71Z"/>
        <path class="cls-3" d="M818.45,695.31c-3.49,0-6.24-.74-8.25-2.21-2.01-1.47-3.42-3.49-4.23-6.04-.81-2.55-1.21-5.4-1.21-8.55v-29.69h-7.85c-.67,0-1.21-.2-1.61-.6s-.6-.94-.6-1.61v-1.41c0-.67.2-1.21.6-1.61s.94-.6,1.61-.6h7.85v-16.91c0-.67.2-1.21.6-1.61.4-.4.94-.6,1.61-.6h1.71c.67,0,1.21.2,1.61.6.4.4.6.94.6,1.61v16.91h12.48c.67,0,1.21.2,1.61.6.4.4.6.94.6,1.61v1.41c0,.67-.2,1.21-.6,1.61s-.94.6-1.61.6h-12.48v29.28c0,3.56.59,6.34,1.76,8.35,1.17,2.01,3.27,3.02,6.29,3.02h5.44c.67,0,1.21.2,1.61.6.4.4.61.94.61,1.61v1.41c0,.67-.2,1.21-.61,1.61-.4.4-.94.6-1.61.6h-5.94Z"/>
        <path class="cls-3" d="M856.39,696.31c-6.51,0-11.67-2.13-15.5-6.39-3.82-4.26-6.01-9.84-6.54-16.76-.07-1.01-.1-2.35-.1-4.03s.03-3.02.1-4.03c.34-4.56,1.41-8.59,3.22-12.08,1.81-3.49,4.31-6.2,7.5-8.15,3.18-1.94,6.96-2.92,11.32-2.92,4.69,0,8.69,1.04,11.98,3.12,3.29,2.08,5.82,5.07,7.6,8.96,1.78,3.89,2.67,8.52,2.67,13.89v1.51c0,.67-.22,1.21-.66,1.61-.44.4-.99.6-1.66.6h-35.82v1.01c.14,3.02.84,5.89,2.11,8.6,1.27,2.72,3.08,4.93,5.44,6.64,2.35,1.71,5.13,2.57,8.35,2.57,2.88,0,5.28-.44,7.2-1.31,1.91-.87,3.44-1.83,4.58-2.87,1.14-1.04,1.88-1.83,2.22-2.36.6-.87,1.07-1.39,1.41-1.56.34-.17.87-.25,1.61-.25h1.61c.61,0,1.12.19,1.56.55.44.37.62.86.55,1.46-.07.94-.59,2.1-1.56,3.47-.98,1.38-2.35,2.73-4.13,4.08-1.78,1.34-3.94,2.45-6.49,3.32-2.55.87-5.4,1.31-8.55,1.31ZM840.49,666.02h32v-.4c0-3.35-.64-6.37-1.91-9.06-1.28-2.68-3.12-4.81-5.54-6.39-2.41-1.58-5.3-2.36-8.65-2.36s-6.22.79-8.6,2.36c-2.38,1.58-4.19,3.71-5.44,6.39-1.24,2.68-1.86,5.7-1.86,9.06v.4Z"/>
        <path class="cls-3" d="M894.12,695.31c-.67,0-1.21-.2-1.61-.6-.4-.4-.6-.94-.6-1.61v-47.9c0-.67.2-1.21.6-1.61.4-.4.94-.6,1.61-.6h1.71c.67,0,1.21.2,1.61.6s.6.94.6,1.61v3.52c1.68-2.15,3.67-3.81,5.99-4.98,2.31-1.17,5.11-1.76,8.4-1.76,7.51,0,12.88,3.15,16.1,9.46,1.54-2.88,3.81-5.18,6.79-6.89,2.98-1.71,6.42-2.57,10.31-2.57,3.55,0,6.76.82,9.61,2.47,2.85,1.64,5.1,4.08,6.74,7.3,1.64,3.22,2.47,7.25,2.47,12.08v29.28c0,.67-.2,1.21-.61,1.61-.4.4-.94.6-1.61.6h-1.71c-.67,0-1.21-.2-1.61-.6-.4-.4-.61-.94-.61-1.61v-28.28c0-4.43-.64-7.87-1.91-10.31-1.28-2.45-2.95-4.18-5.03-5.18-2.08-1.01-4.33-1.51-6.74-1.51-2.01,0-4.06.5-6.14,1.51-2.08,1.01-3.81,2.73-5.18,5.18-1.38,2.45-2.06,5.89-2.06,10.31v28.28c0,.67-.2,1.21-.6,1.61-.4.4-.94.6-1.61.6h-1.71c-.67,0-1.21-.2-1.61-.6-.4-.4-.61-.94-.61-1.61v-28.28c0-4.43-.67-7.87-2.01-10.31-1.34-2.45-3.05-4.18-5.13-5.18-2.08-1.01-4.26-1.51-6.54-1.51-2.01,0-4.06.5-6.14,1.51-2.08,1.01-3.81,2.73-5.18,5.18-1.38,2.45-2.06,5.85-2.06,10.21v28.38c0,.67-.2,1.21-.6,1.61-.4.4-.94.6-1.61.6h-1.71Z"/>
        <path class="cls-3" d="M999.69,696.31c-6.51,0-11.67-2.13-15.5-6.39-3.82-4.26-6.01-9.84-6.54-16.76-.07-1.01-.1-2.35-.1-4.03s.03-3.02.1-4.03c.34-4.56,1.41-8.59,3.22-12.08,1.81-3.49,4.31-6.2,7.5-8.15,3.18-1.94,6.96-2.92,11.32-2.92,4.69,0,8.69,1.04,11.98,3.12,3.29,2.08,5.82,5.07,7.6,8.96,1.78,3.89,2.67,8.52,2.67,13.89v1.51c0,.67-.22,1.21-.66,1.61-.44.4-.99.6-1.66.6h-35.82v1.01c.14,3.02.84,5.89,2.11,8.6,1.27,2.72,3.08,4.93,5.44,6.64,2.35,1.71,5.13,2.57,8.35,2.57,2.88,0,5.28-.44,7.2-1.31,1.91-.87,3.44-1.83,4.58-2.87,1.14-1.04,1.88-1.83,2.22-2.36.6-.87,1.07-1.39,1.41-1.56.34-.17.87-.25,1.61-.25h1.61c.61,0,1.12.19,1.56.55.44.37.62.86.55,1.46-.07.94-.59,2.1-1.56,3.47-.98,1.38-2.35,2.73-4.13,4.08-1.78,1.34-3.94,2.45-6.49,3.32-2.55.87-5.4,1.31-8.55,1.31ZM983.79,666.02h32v-.4c0-3.35-.64-6.37-1.91-9.06-1.28-2.68-3.12-4.81-5.54-6.39-2.41-1.58-5.3-2.36-8.65-2.36s-6.22.79-8.6,2.36c-2.38,1.58-4.19,3.71-5.44,6.39-1.24,2.68-1.86,5.7-1.86,9.06v.4Z"/>
        <path class="cls-3" d="M1037.42,695.31c-.67,0-1.21-.2-1.61-.6-.4-.4-.6-.94-.6-1.61v-47.9c0-.67.2-1.21.6-1.61.4-.4.94-.6,1.61-.6h1.71c.67,0,1.21.2,1.61.6.4.4.6.94.6,1.61v4.73c1.81-2.35,4.01-4.26,6.59-5.74,2.58-1.48,6.02-2.21,10.31-2.21,4.56,0,8.37.99,11.42,2.97,3.05,1.98,5.33,4.66,6.84,8.05,1.51,3.39,2.26,7.23,2.26,11.52v28.58c0,.67-.2,1.21-.6,1.61-.4.4-.94.6-1.61.6h-1.71c-.67,0-1.21-.2-1.61-.6-.4-.4-.6-.94-.6-1.61v-28.08c0-5.37-1.31-9.58-3.92-12.63-2.62-3.05-6.44-4.58-11.47-4.58-4.76,0-8.6,1.53-11.52,4.58-2.92,3.05-4.38,7.26-4.38,12.63v28.08c0,.67-.2,1.21-.6,1.61-.4.4-.94.6-1.61.6h-1.71Z"/>
        <path class="cls-3" d="M1111.39,695.31c-3.49,0-6.24-.74-8.25-2.21-2.01-1.47-3.42-3.49-4.23-6.04-.81-2.55-1.21-5.4-1.21-8.55v-29.69h-7.85c-.67,0-1.21-.2-1.61-.6s-.6-.94-.6-1.61v-1.41c0-.67.2-1.21.6-1.61.4-.4.94-.6,1.61-.6h7.85v-16.91c0-.67.2-1.21.6-1.61.4-.4.94-.6,1.61-.6h1.71c.67,0,1.21.2,1.61.6.4.4.6.94.6,1.61v16.91h12.48c.67,0,1.21.2,1.61.6.4.4.6.94.6,1.61v1.41c0,.67-.2,1.21-.6,1.61s-.94.6-1.61.6h-12.48v29.28c0,3.56.59,6.34,1.76,8.35,1.17,2.01,3.27,3.02,6.29,3.02h5.44c.67,0,1.21.2,1.61.6.4.4.61.94.61,1.61v1.41c0,.67-.2,1.21-.61,1.61-.4.4-.94.6-1.61.6h-5.94Z"/>
      </g>
      <g>
        <path class="cls-2" d="M731.15,101.19l-65.15,65.16c-4.73,4.74-4.73,12.41,0,17.15l65.15,65.15c2.27,2.27,3.55,5.36,3.55,8.57v80.5c0,6.7-5.43,12.13-12.13,12.13h-80.5c-3.22,0-6.3-1.28-8.57-3.55l-73.72-73.72h-.02l-73.72,73.72c-2.27,2.27-5.36,3.55-8.57,3.55h-80.51c-6.7,0-12.13-5.43-12.13-12.13v-80.5c0-3.22,1.28-6.3,3.55-8.57l65.16-65.16c4.74-4.74,4.74-12.41,0-17.15l-65.16-65.16c-2.27-2.27-3.55-5.36-3.55-8.57V12.13C384.84,5.43,390.27,0,396.96,0h80.51c3.22,0,6.3,1.28,8.57,3.55l65.15,65.15c4.74,4.74,12.41,4.74,17.15,0L633.49,3.55C635.77,1.28,638.85,0,642.07,0h80.51c6.7,0,12.13,5.43,12.13,12.13v80.5c0,3.22-1.28,6.3-3.55,8.57Z"/>
        <path class="cls-4" d="M349.85,12.13v325.59c0,6.7-5.43,12.13-12.13,12.13h-167.97c-3.21,0-6.3-1.28-8.57-3.55l-53.03-53.03c-7.63-7.63-20.69-2.22-20.69,8.58v35.87c0,6.7-5.43,12.13-12.13,12.13H12.12C5.43,349.85,0,344.42,0,337.72v-114.56c0-5.76,4.05-10.72,9.69-11.88l131.85-27.07c8.31-1.71,15.25,6.41,12.27,14.36l-20.04,53.29c-.34.89-.49,1.8-.49,2.7,0,3.54,2.49,6.79,6.21,7.51,10.55,2.03,21.3-2.35,27.42-11.18l54.41-78.51c3.64-5.25,9.07-8.99,15.27-10.51l68-16.71c4.48-1.1,7.37-5.12,7.37-9.42,0-1.26-.25-2.55-.78-3.8-8.64-20.14-30.52-31.13-51.83-26.03l-62.56,14.96c-4.18,1-8.58.46-12.39-1.53l-53.73-28.11c-7.78-4.06-16.87-4.81-25.21-2.08l-4.08,1.34c-5.54,1.82-7.11,8.91-2.84,12.89l29.75,27.69c2.25,2.1,1.3,5.86-1.68,6.63l-111.43,28.93C7.5,168.62,0,162.83,0,154.89V12.13C0,5.43,5.43,0,12.12,0h80.5c3.21,0,6.3,1.28,8.57,3.55l53.02,53.02c7.64,7.64,20.7,2.23,20.7-8.57V12.13c0-6.7,5.43-12.13,12.13-12.13h150.68c6.7,0,12.13,5.43,12.13,12.13Z"/>
        <g>
          <path class="cls-1" d="M1119.54,12.13v110.67c0,6.7-5.43,12.13-12.13,12.13h-83.21c-6.7,0-12.13,5.43-12.13,12.13v190.68c0,6.7-5.43,12.13-12.13,12.13h-110.68c-6.7,0-12.13-5.43-12.13-12.13v-190.68c0-6.7-5.43-12.13-12.13-12.13h-83.21c-6.7,0-12.13-5.43-12.13-12.13V12.13C769.69,5.43,775.12,0,781.82,0h325.6c6.7,0,12.13,5.43,12.13,12.13Z"/>
          <g>
            <path class="cls-1" d="M1097.71,306.12c-12.07,0-21.87,9.8-21.87,21.87,0,4.65,1.46,8.97,3.94,12.53,3.97,5.64,10.51,9.34,17.93,9.34s13.96-3.7,17.9-9.34c2.48-3.56,3.94-7.88,3.94-12.53,0-12.07-9.77-21.87-21.83-21.87ZM1111.38,340.51c-3.38,3.72-8.27,6.03-13.67,6.03s-10.29-2.32-13.67-6.03c-3.05-3.3-4.89-7.7-4.89-12.53,0-10.24,8.32-18.56,18.56-18.56s18.56,8.32,18.56,18.56c0,4.83-1.84,9.23-4.89,12.53Z"/>
            <path class="cls-1" d="M1102.07,331.56c1.29-.59,2.3-1.4,3.03-2.46.7-1.1,1.06-2.35,1.06-3.84s-.37-2.76-1.06-3.84c-.71-1.1-1.7-1.92-3.02-2.51-1.29-.59-2.83-.89-4.59-.89h-8.64v19.94h4.62v-5.56h4.24l3.84,5.56h4.95l-4.45-6.4ZM1100.39,327.81c-.71.6-1.76.92-3.14.92h-3.76v-6.97h3.76c1.38,0,2.43.32,3.14.91.73.62,1.1,1.48,1.1,2.59s-.37,1.97-1.1,2.56Z"/>
          </g>
        </g>
      </g>
    </g>
  </g>
</svg>